<?xml version="1.0" encoding="UTF-8"?>
<svg id="Layer_1" data-name="Layer 1" xmlns="http://www.w3.org/2000/svg" viewBox="0 0 166.36 339.35">
  <defs>
    <style>
      .cls-1 {
        fill: #fff;
      }
    </style>
  </defs>
  <path class="cls-1" d="M165.7,6.75c1.68-2.47-.07-5.81-3.05-5.84L67.87,0c-1.45,0-2.78.82-3.4,2.13L.37,135.87c-1.19,2.48.62,5.35,3.37,5.35h50.24c2.89,0,4.69,3.14,3.22,5.64l-35.09,59.51c-1.47,2.49.32,5.64,3.22,5.64h52.22c2.68,0,4.49,2.74,3.43,5.21l-50.11,116.89c-1.71,3.98,3.58,7.19,6.33,3.84l124.45-152.12c1.96-2.39.32-6-2.77-6.1l-52.58-1.81c-3.08-.11-4.72-3.68-2.79-6.08l40.02-49.91c1.97-2.45.21-6.09-2.93-6.08l-42.17.16c-3.01.02-4.79-3.35-3.1-5.84L165.7,6.75ZM43.79,79.03l-3.64,7.47c-.77,1.58-2.67,2.24-4.26,1.47-1.58-.77-2.24-2.68-1.47-4.26l3.64-7.47c.55-1.13,1.69-1.79,2.87-1.79.47,0,.94.1,1.39.32,1.58.77,2.24,2.68,1.47,4.26ZM76.39,12.82l-25.91,53.21c-.77,1.58-2.68,2.24-4.26,1.47-1.58-.77-2.24-2.68-1.47-4.26l25.91-53.21c.55-1.13,1.69-1.79,2.87-1.79.47,0,.94.1,1.39.32,1.58.77,2.24,2.68,1.47,4.26Z"/>
</svg>